<svg xmlns="http://www.w3.org/2000/svg" viewBox="0 0 256 256" focusable="false" color="rgba(255, 255, 255, 0.54)" style="user-select: none; width: 100%; height: 100%; display: inline-block; fill: rgba(255, 255, 255, 0.54); color: rgba(255, 255, 255, 0.54); flex-shrink: 0;"><g color="rgba(255, 255, 255, 0.54)" weight="regular"><path d="M200,56H32A24,24,0,0,0,8,80v96a24,24,0,0,0,24,24H200a24,24,0,0,0,24-24V80A24,24,0,0,0,200,56Zm8,120a8,8,0,0,1-8,8H32a8,8,0,0,1-8-8V80a8,8,0,0,1,8-8H200a8,8,0,0,1,8,8Zm48-80v64a8,8,0,0,1-16,0V96a8,8,0,0,1,16,0ZM138.81,123.79a8,8,0,0,1,.35,7.79l-16,32a8,8,0,0,1-14.32-7.16L119.06,136H100a8,8,0,0,1-7.16-11.58l16-32a8,8,0,1,1,14.32,7.16L112.94,120H132A8,8,0,0,1,138.81,123.79Z"></path></g></svg>