<svg xmlns="http://www.w3.org/2000/svg" viewBox="0 0 256 256" focusable="false" color="rgba(255, 255, 255, 0.52)" style="user-select: none; width: 100%; height: 100%; display: inline-block; fill: rgba(255, 255, 255, 0.52); color: rgba(255, 255, 255, 0.52); flex-shrink: 0;"><g color="rgba(255, 255, 255, 0.52)" weight="fill"><path d="M220,169.09l-92,53.65L36,169.09A8,8,0,0,0,28,182.91l96,56a8,8,0,0,0,8.06,0l96-56A8,8,0,1,0,220,169.09Z"></path><path d="M220,121.09l-92,53.65L36,121.09A8,8,0,0,0,28,134.91l96,56a8,8,0,0,0,8.06,0l96-56A8,8,0,1,0,220,121.09Z"></path><path d="M28,86.91l96,56a8,8,0,0,0,8.06,0l96-56a8,8,0,0,0,0-13.82l-96-56a8,8,0,0,0-8.06,0l-96,56a8,8,0,0,0,0,13.82Z"></path></g></svg>