<svg xmlns="http://www.w3.org/2000/svg" xmlns:xlink="http://www.w3.org/1999/xlink" viewBox="0 0 32 37"><g id="ss1446482139_1"><path d="M 0 0 L 31.67 0 L 31.67 37 L 0 37 Z" fill="transparent"></path><path d="M 22.616 14.61 L 31.61 9.357 L 31.61 16.634 L 22.616 16.634 Z" fill="rgb(255,255,255)" stroke-width="0.12" stroke="rgb(255,255,255)" stroke-miterlimit="0.8"></path><path d="M 31.671 9.25 L 22.555 14.575 L 15.834 10.65 L 15.834 0 Z" fill="rgb(246,246,246)"></path><path d="M 15.834 0 L 15.834 10.65 L 9.115 14.575 L 0 9.25 Z" fill="rgb(238,238,238)"></path><path d="M 9.115 14.575 L 9.115 22.425 L 0 27.749 L 0 9.25 Z" fill="rgb(226,226,226)"></path><path d="M 15.834 26.351 L 15.834 37 L 0 27.749 L 9.115 22.425 Z" fill="rgb(203,203,203)"></path><path d="M 31.671 27.749 L 15.834 37 L 15.834 26.351 L 22.555 22.425 Z" fill="rgb(175,175,175)"></path><path d="M 31.67 20.304 L 31.67 27.75 L 22.555 22.425 L 22.555 20.304 Z" fill="rgb(117,117,117)"></path></g></svg>