<svg xmlns="http://www.w3.org/2000/svg" viewBox="0 0 256 256" focusable="false" color="rgba(255, 255, 255, 0.75)" style="user-select: none; width: 100%; height: 100%; display: inline-block; fill: rgba(255, 255, 255, 0.75); color: rgba(255, 255, 255, 0.75); flex-shrink: 0;"><g color="rgba(255, 255, 255, 0.75)" weight="bold"><path d="M100,36H56A20,20,0,0,0,36,56v44a20,20,0,0,0,20,20h44a20,20,0,0,0,20-20V56A20,20,0,0,0,100,36ZM96,96H60V60H96ZM200,36H156a20,20,0,0,0-20,20v44a20,20,0,0,0,20,20h44a20,20,0,0,0,20-20V56A20,20,0,0,0,200,36Zm-4,60H160V60h36Zm-96,40H56a20,20,0,0,0-20,20v44a20,20,0,0,0,20,20h44a20,20,0,0,0,20-20V156A20,20,0,0,0,100,136Zm-4,60H60V160H96Zm104-60H156a20,20,0,0,0-20,20v44a20,20,0,0,0,20,20h44a20,20,0,0,0,20-20V156A20,20,0,0,0,200,136Zm-4,60H160V160h36Z"></path></g></svg>