<svg xmlns="http://www.w3.org/2000/svg" viewBox="0 0 256 256" focusable="false" color="rgba(255, 255, 255, 0.75)" style="user-select: none; width: 100%; height: 100%; display: inline-block; fill: rgba(255, 255, 255, 0.75); color: rgba(255, 255, 255, 0.75); flex-shrink: 0;"><g color="rgba(255, 255, 255, 0.75)" weight="bold"><path d="M230.86,109.25,169.18,86.82,146.75,25.14a19.95,19.95,0,0,0-37.5,0L86.82,86.82,25.14,109.25a19.95,19.95,0,0,0,0,37.5l61.68,22.43,22.43,61.68a19.95,19.95,0,0,0,37.5,0l22.43-61.68,61.68-22.43a19.95,19.95,0,0,0,0-37.5Zm-71.65,38a19.92,19.92,0,0,0-11.94,11.94l-19.27,53-19.27-53a19.92,19.92,0,0,0-11.94-11.94L43.79,128l53-19.27a19.92,19.92,0,0,0,11.94-11.94l19.27-53,19.27,53a19.92,19.92,0,0,0,11.94,11.94l53,19.27Z"></path></g></svg>