<svg xmlns="http://www.w3.org/2000/svg" viewBox="0 0 256 256" focusable="false" color="rgba(255, 255, 255, 0.75)" style="user-select: none; width: 100%; height: 100%; display: inline-block; fill: rgba(255, 255, 255, 0.75); color: rgba(255, 255, 255, 0.75); flex-shrink: 0;"><g color="rgba(255, 255, 255, 0.75)" weight="bold"><path d="M216,36H40A20,20,0,0,0,20,56V200a20,20,0,0,0,20,20H216a20,20,0,0,0,20-20V56A20,20,0,0,0,216,36Zm-4,160H44V60H212ZM76,88a12,12,0,0,1,24,0,28,28,0,0,0,56,0,12,12,0,0,1,24,0A52,52,0,0,1,76,88Z"></path></g></svg>